<svg preserveAspectRatio="none" overflow="visible" style="display: block;" width="23.131" height="10.4639" viewBox="0 0 23.131 10.4639" fill="none" xmlns="http://www.w3.org/2000/svg">
<g id="battery.100 F22 Fina" clip-path="url(#clip0_0_1089)">
<path id="Outside" opacity="0.4" d="M4.14097 10.4639H16.6485C18.1083 10.4639 19.1509 10.3001 19.895 9.55584C20.6417 8.81163 20.7951 7.78771 20.7951 6.3229V4.15345C20.7951 2.68867 20.6417 1.65972 19.895 0.918025C19.1484 0.173825 18.1083 0.0124851 16.6485 0.0124851H4.0949C2.69172 0.0124851 1.64668 0.176322 0.902481 0.923019C0.155783 1.66722 0 2.69922 0 4.10183V6.3229C0 7.78771 0.153285 8.8141 0.897487 9.55584C1.64668 10.3001 2.68423 10.4639 4.14097 10.4639ZM3.92848 9.46669C2.97897 9.46669 2.12401 9.31642 1.62767 8.82565C1.13938 8.32933 0.997208 7.4874 0.997208 6.53539V3.98454C0.997208 2.99395 1.13938 2.14205 1.62517 1.64571C2.12151 1.14687 2.98952 1.0072 3.97761 1.0072H16.8666C17.8161 1.0072 18.6711 1.15992 19.1594 1.64821C19.6557 2.14455 19.7979 2.98089 19.7979 3.93291V6.53539C19.7979 7.4874 19.6532 8.32933 19.1594 8.82565C18.6711 9.31897 17.8161 9.46669 16.8666 9.46669H3.92848ZM21.7283 7.19928C22.3246 7.1615 23.131 6.3929 23.131 5.23539C23.131 4.08096 22.3246 3.31235 21.7283 3.27458V7.19928Z" fill="black"/>
<path id="Inside" d="M3.64639 8.63969H17.1567C17.8792 8.63969 18.3088 8.52669 18.5818 8.25367C18.8548 7.97818 18.9733 7.54612 18.9733 6.82303V3.65083C18.9733 2.92274 18.8548 2.49566 18.5843 2.22019C18.3088 1.9497 17.8742 1.8342 17.1567 1.8342H3.69803C2.92637 1.8342 2.48125 1.94721 2.21882 2.21769C1.94833 2.49317 1.82977 2.93829 1.82977 3.6969V6.82303C1.82977 7.55362 1.94833 7.97818 2.21882 8.25367C2.4943 8.52414 2.92886 8.63969 3.64639 8.63969Z" fill="black"/>
</g>
<defs>
<clipPath id="clip0_0_1089">
<rect width="23.131" height="10.4639" fill="white"/>
</clipPath>
</defs>
</svg>
